<svg id="Layer_1" enable-background="new 0 0 510.875 510.875" height="512" viewBox="0 0 510.875 510.875" width="512" xmlns="http://www.w3.org/2000/svg"><g><g><path d="m509.252 231.131-4.615-5.745 3.184-6.18c-17.78-123.46-124.003-218.331-252.384-218.331-98.131 0-158.58 55.352-158.747 55.445 0 0-2.513 3.137-2.983 5.222-3.818 16.948-7.385 39.663-7.385 56.238 0 140.833 118.763 254.972 259.596 254.972 54.231 0 114.568-25.992 154.949-57.243.903-.699 3.769-5.396 3.769-5.396.178-1.087 5.8-23.477 5.8-54.239.001-8.347-.4-16.601-1.184-24.743z" fill="#fef056"/><path d="m345.896 365.554c-140.833 0-255-114.167-255-255 0-18.615 2.007-36.753 5.795-54.234-58.645 46.72-96.254 118.747-96.254 199.555 0 18.999 2.078 37.512 6.018 55.326l43.695 95.972c2.587 3.504 5.262 6.94 8.021 10.304l14.14 5.496-1.837 8.441c1.149 1.21 2.31 2.409 3.482 3.597l77.414 53.732c14.72 6.588 30.179 11.822 46.218 15.542l7.219-1.606 11.133 5.155c12.872 2.001 26.063 3.04 39.497 3.04 99.436 0 186.6-57.229 228.531-141.745l-.244-8.249 5.861-3.864c6.448-14.924 11.521-30.609 15.051-46.904-43.558 34.697-98.723 55.442-158.74 55.442z" fill="#fed402"/></g><g><g><path d="m93.486 286.937h20v48.22h-20z" fill="#293939"/></g><g><path d="m122.639 307.252-11.734-3.843c-5.119-1.676-10.639-1.676-15.758 0l-10.809 3.54c-18.465 6.047-36.578-10.101-32.682-29.137l6.658-32.533c2.68-13.094 14.201-22.495 27.566-22.495h35.828c13.574 0 25.213 9.691 27.672 23.04l6.038 32.781c3.478 18.892-14.524 34.625-32.779 28.647z" fill="#374f4f"/></g><g><g><path d="m58.313 245.28-6.135 29.979c1.624 1.289 3.443 2.297 5.447 2.96 12.379 4.09 26.978-6.406 32.607-23.443 4.044-12.24 2.358-24.526-3.502-31.991h-.85c-13.366-.001-24.887 9.401-27.567 22.495z" fill="#32393f"/></g><g><path d="m121.707 222.784h-1.463c-5.86 7.465-7.546 19.751-3.502 31.991 5.629 17.037 20.227 27.533 32.607 23.443 2.005-.663 3.826-1.672 5.451-2.963l-5.421-29.431c-2.46-13.349-14.098-23.04-27.672-23.04z" fill="#32393f"/></g></g><path d="m109.411 435.896c-.54-3.357-3.742-5.58-7.055-4.943l-22.029 4.227c-2.108.405-4.26.264-6.36-.179-.009-.002-.017-.004-.026-.005 3.006 3.045 6.087 6.015 9.242 8.907l21.186-1.117c3.227-.62 5.564-3.647 5.042-6.89z" fill="#344444"/><g><path d="m65.513 407.232c-2.7 0-5.334-1.366-6.841-3.841-2.297-3.774-1.101-8.696 2.673-10.994l30.38-18.495c3.775-2.297 8.696-1.1 10.994 2.673 2.297 3.774 1.101 8.696-2.673 10.994l-30.38 18.495c-1.3.791-2.736 1.168-4.153 1.168z" fill="#344444"/></g><g fill="#344444"><path d="m101.01 377.615c-1.724-2.831-5.415-3.729-8.245-2.005l-28.942 17.62h-6.771l-33.956-67.08c-1.301-2.57-3.801-4.135-6.475-4.36l-10.165-10.589c7.643 34.553 22.477 67.231 43.695 95.972 2.339.287 4.605-.479 6.264-1.942 8.154-.219 9.843.566 12.209-.875l30.38-18.495c2.831-1.724 3.729-5.415 2.006-8.246z"/><path d="m215.941 507.834-28.963-35.621c.106-2.698-1.157-5.385-3.572-6.988l-43.803-29.064c-2.637-1.75-5.934-1.73-8.49-.224l-25.976-4.984c-3.26-.625-6.399 1.507-7.023 4.762s1.507 6.399 4.762 7.023l25.975 4.984c.521.673 1.159 1.274 1.907 1.771l43.803 29.064c.97.644 2.029 1.048 3.108 1.227l19.921 24.5c6.037 1.401 12.157 2.587 18.351 3.55z"/><path d="m240.606 278.646c-2.391-2.296-6.189-2.217-8.483.173l-41.252 42.971c-2.674.225-5.174 1.79-6.475 4.361l-33.955 67.081h-3.16c-.347-.305-.725-.585-1.133-.833l-30.38-18.495c-3.775-2.297-8.696-1.1-10.994 2.673-2.297 3.774-1.101 8.696 2.673 10.994l30.38 18.495c1.3.791 2.735 1.167 4.152 1.167 1.93 0 3.827-.699 5.302-2.001h3.795c.499.439 1.061.823 1.681 1.138 1.158.586 2.391.864 3.606.864 2.92 0 5.735-1.605 7.144-4.389l35.163-69.468c.533-1.054.811-2.169.857-3.277l41.251-42.97c2.296-2.392 2.219-6.19-.172-8.484z"/><path d="m273.417 388.542c-.538-3.27-3.624-5.484-6.894-4.947l-44.978 7.396c-2.459-1.539-5.672-1.683-8.337-.098l-43.266 25.706c-.436.259-.839.554-1.206.877h-25.415c-.225-.198-.463-.385-.714-.561l-22.983-16.035c-3.623-2.527-8.611-1.64-11.139 1.983-2.528 3.624-1.64 8.61 1.983 11.139l22.983 16.035c1.395.973 2.99 1.439 4.571 1.439 1.92 0 3.817-.691 5.3-2h25.413c1.474 1.301 3.37 2.001 5.301 2.001 1.39 0 2.798-.362 4.079-1.124l43.266-25.706c.828-.492 1.536-1.111 2.112-1.816l44.978-7.396c3.269-.537 5.484-3.623 4.946-6.893z"/><path d="m87.868 400.881-22.983 16.035c-.251.176-.489.363-.714.561h-5.999c3.933 4.795 8.037 9.443 12.303 13.937 1.243-.157 2.467-.609 3.566-1.376l22.983-16.035c3.624-2.528 4.511-7.515 1.983-11.139-2.529-3.624-7.516-4.511-11.139-1.983z"/></g><g><path d="m141.468 355.267c0-20.977-17.005-37.982-37.982-37.982s-37.982 17.005-37.982 37.982c0 13.714 7.27 25.728 18.165 32.405v37.872c0 6.241 5.06 11.301 11.301 11.301h17.031c6.241 0 11.301-5.06 11.301-11.301v-37.872c10.896-6.677 18.166-18.691 18.166-32.405z" fill="#374f4f"/></g><path d="m151.37 488.742c-3.68-33.663-47.884-60.265-47.884-60.265s-9.647 5.806-20.303 15.425c20.046 18.374 43.038 33.584 68.187 44.84z" fill="#374f4f"/><path d="m103.486 230.736h-50.524c-7.047 0-13.062-5.16-14.303-12.271-3.498-20.045-14.285-33.542-25.172-43.317-1.416 4.243-2.723 8.536-3.918 12.875 9.77 9.93 15.112 20.149 17.269 32.505 2.246 12.868 13.232 22.208 26.125 22.208h50.524c3.313 0 6-2.687 6-6s-2.687-6-6.001-6z" fill="#344444"/><g><path d="m154.53 242.736h-50.524c-3.313 0-6-2.687-6-6s2.687-6 6-6h50.524c7.047 0 13.062-5.16 14.303-12.27 4.334-24.835 19.857-39.62 32.896-49.726 2.62-2.031 6.389-1.552 8.418 1.066 2.03 2.619 1.553 6.388-1.066 8.418-17.057 13.221-25.559 25.872-28.426 42.305-2.246 12.867-13.233 22.207-26.125 22.207z" fill="#344444"/></g></g><g><g><path d="m353.582 119.457h20v48.22h-20z" fill="#293939"/></g><g><path d="m382.734 139.772-11.734-3.843c-5.119-1.676-10.639-1.676-15.758 0l-10.809 3.54c-18.465 6.047-36.578-10.101-32.682-29.137l6.658-32.533c2.68-13.094 14.201-22.495 27.566-22.495h35.828c13.574 0 25.213 9.691 27.672 23.04l6.038 32.781c3.479 18.892-14.523 34.625-32.779 28.647z" fill="#374f4f"/></g><g><g><path d="m318.409 77.799-6.135 29.979c1.624 1.289 3.443 2.297 5.447 2.96 12.379 4.09 26.978-6.406 32.607-23.443 4.044-12.24 2.358-24.526-3.502-31.991h-.85c-13.367 0-24.888 9.401-27.567 22.495z" fill="#32393f"/></g><g><path d="m381.802 55.304h-1.463c-5.86 7.465-7.546 19.751-3.502 31.991 5.629 17.037 20.227 27.533 32.607 23.443 2.005-.663 3.826-1.672 5.451-2.963l-5.421-29.431c-2.459-13.35-14.098-23.04-27.672-23.04z" fill="#32393f"/></g></g><g fill="#344444"><path d="m369.474 268.234c-.625-3.255-3.772-5.386-7.023-4.762l-25.976 4.984c-2.556-1.506-5.852-1.526-8.491.224l-43.803 29.064c-2.415 1.602-3.678 4.29-3.572 6.988l-54.128 66.572c-2.09 2.571-1.701 6.35.87 8.44 1.113.905 2.451 1.345 3.782 1.345 1.744 0 3.473-.756 4.659-2.215l54.127-66.571c1.079-.179 2.138-.583 3.108-1.227l43.803-29.064c.749-.497 1.387-1.098 1.907-1.771l25.975-4.984c3.255-.625 5.387-3.769 4.762-7.023z"/><path d="m362.814 209.094c-2.297-3.774-7.219-4.97-10.994-2.673l-30.38 18.495c-.408.249-.786.528-1.133.833h-3.16l-33.955-67.08c-1.301-2.57-3.799-4.135-6.474-4.36l-41.253-42.972c-2.294-2.39-6.093-2.468-8.483-.173-2.391 2.294-2.468 6.093-.173 8.483l41.251 42.97c.046 1.108.324 2.223.857 3.277l35.163 69.467c1.409 2.784 4.224 4.389 7.144 4.389 1.215 0 2.449-.278 3.606-.864.621-.314 1.183-.698 1.681-1.138h3.795c1.475 1.302 3.372 2.001 5.302 2.001 1.417 0 2.853-.376 4.152-1.167l30.38-18.495c3.774-2.297 4.971-7.219 2.674-10.993z"/><path d="m489.586 357.017-42.512-52.285c.106-2.698-1.157-5.385-3.572-6.988l-43.803-29.064c-2.638-1.75-5.935-1.731-8.491-.224l-25.976-4.984c-3.256-.623-6.399 1.507-7.023 4.762-.625 3.254 1.507 6.399 4.762 7.023l25.975 4.984c.521.673 1.159 1.274 1.907 1.771l43.803 29.064c.97.644 2.029 1.048 3.108 1.227l46.204 56.826c1.974-3.977 3.848-8.016 5.618-12.112z"/><path d="m500.702 111.165c-2.392-2.296-6.189-2.217-8.483.173l-41.252 42.971c-2.674.225-5.174 1.79-6.475 4.361l-33.955 67.08h-3.16c-.347-.305-.725-.585-1.133-.833l-30.38-18.495c-3.775-2.297-8.696-1.1-10.994 2.673-2.297 3.774-1.101 8.696 2.673 10.994l30.38 18.495c1.3.791 2.735 1.167 4.152 1.167 1.93 0 3.827-.699 5.302-2.001h3.795c.499.439 1.061.823 1.681 1.138 1.158.586 2.391.864 3.606.864 2.92 0 5.735-1.605 7.144-4.389l35.163-69.467c.533-1.054.811-2.169.857-3.277l41.251-42.97c2.296-2.391 2.219-6.189-.172-8.484z"/><path d="m509.252 231.131c-.385-4.003-.863-7.979-1.432-11.926l-26.18 4.305c-2.459-1.538-5.671-1.681-8.337-.098l-43.266 25.705c-.437.259-.839.554-1.207.878h-25.415c-.225-.198-.463-.385-.714-.561l-22.981-16.034c-3.623-2.527-8.611-1.64-11.139 1.983-2.528 3.624-1.64 8.61 1.983 11.139l22.983 16.035c1.395.973 2.99 1.439 4.571 1.439 1.92 0 3.817-.691 5.3-2h25.413c1.474 1.301 3.369 2.001 5.301 2.001 1.389 0 2.797-.363 4.079-1.124l43.266-25.706c.828-.492 1.536-1.111 2.112-1.816z"/><path d="m359.102 235.383c-2.529-3.624-7.516-4.511-11.139-1.983l-22.983 16.035c-.251.176-.489.363-.714.561h-25.415c-.368-.324-.77-.619-1.207-.878l-43.266-25.706c-2.667-1.584-5.879-1.441-8.338.098l-44.977-7.396c-3.27-.541-6.356 1.677-6.894 4.947s1.677 6.356 4.947 6.894l44.977 7.396c.576.706 1.283 1.324 2.112 1.817l43.266 25.706c1.282.761 2.689 1.124 4.079 1.124 1.932 0 3.828-.701 5.301-2.001h25.414c1.483 1.31 3.379 2 5.3 2 1.581 0 3.177-.467 4.571-1.439l22.983-16.035c3.623-2.53 4.511-7.516 1.983-11.14z"/></g><g><path d="m401.564 187.786c0-20.977-17.005-37.982-37.982-37.982s-37.982 17.006-37.982 37.982c0 13.714 7.27 25.728 18.165 32.405v37.872c0 6.241 5.06 11.301 11.301 11.301h17.031c6.241 0 11.301-5.06 11.301-11.301v-37.872c10.895-6.677 18.166-18.69 18.166-32.405z" fill="#374f4f"/></g><g><path d="m411.71 325.686c0 35.727-16.024 64.689-48.128 64.689s-48.128-28.962-48.128-64.689 48.128-64.689 48.128-64.689 48.128 28.962 48.128 64.689z" fill="#374f4f"/></g><g><path d="m394.759 351.414c-32.103 0-48.128-28.963-48.128-64.689 0-5.42 1.113-10.683 2.992-15.714-14.212 11.469-34.169 31.668-34.169 54.675 0 35.727 16.024 64.69 48.128 64.69 24.642 0 39.799-17.073 45.519-41.163-4.361 1.428-9.136 2.201-14.342 2.201z" fill="#344444"/></g><g><path d="m363.582 75.255h-50.524c-12.892 0-23.879-9.339-26.125-22.208-2.868-16.432-11.369-29.083-28.426-42.304-2.619-2.03-3.097-5.799-1.066-8.418 2.03-2.619 5.798-3.096 8.418-1.066 13.039 10.106 28.562 24.891 32.896 49.726 1.241 7.11 7.256 12.271 14.303 12.271h50.524c3.313 0 6 2.687 6 6s-2.687 5.999-6 5.999z" fill="#344444"/></g><g><path d="m414.626 75.255h-50.525c-3.313 0-6-2.687-6-6s2.687-6 6-6h50.525c7.047 0 13.062-5.161 14.303-12.271 4.334-24.834 19.857-39.62 32.896-49.726 2.62-2.031 6.389-1.552 8.418 1.066 2.03 2.619 1.553 6.388-1.066 8.418-17.057 13.221-25.559 25.872-28.426 42.305-2.247 12.868-13.234 22.208-26.125 22.208z" fill="#344444"/></g></g></g></svg>